M48
; DRILL file {KiCad 8.0.6} date 2024-11-01T20:33:55-0400
; FORMAT={-:-/ absolute / inch / decimal}
; #@! TF.CreationDate,2024-11-01T20:33:55-04:00
; #@! TF.GenerationSoftware,Kicad,Pcbnew,8.0.6
; #@! TF.FileFunction,Plated,1,4,PTH
FMAT,2
INCH
; #@! TA.AperFunction,Plated,PTH,ComponentDrill
T1C0.0079
; #@! TA.AperFunction,Plated,PTH,ViaDrill
T2C0.0157
; #@! TA.AperFunction,Plated,PTH,ViaDrill
T3C0.0315
; #@! TA.AperFunction,Plated,PTH,ComponentDrill
T4C0.0394
; #@! TA.AperFunction,Plated,PTH,ComponentDrill
T5C0.0429
; #@! TA.AperFunction,Plated,PTH,ViaDrill
T6C0.0472
; #@! TA.AperFunction,Plated,PTH,ComponentDrill
T7C0.0866
%
G90
G05
T1
X4.6102Y-3.4299
X4.6102Y-3.485
X4.6378Y-3.4024
X4.6378Y-3.4575
X4.6378Y-3.5126
X4.6654Y-3.4299
X4.6654Y-3.485
X4.6929Y-3.4024
X4.6929Y-3.4575
X4.6929Y-3.5126
X4.7205Y-3.4299
X4.7205Y-3.485
T2
X3.7077Y-3.6555
X3.7411Y-3.7047
X3.7441Y-3.8271
X3.7884Y-3.7077
X3.8937Y-3.3317
X3.8967Y-4.6752
X3.9067Y-4.6358
X3.9318Y-4.3978
X3.935Y-4.437
X3.9429Y-4.7411
X3.9577Y-3.878
X3.9678Y-4.5144
X3.9852Y-4.2352
X4.0072Y-4.5137
X4.0354Y-4.2333
X4.0512Y-4.8228
X4.064Y-4.5413
X4.0974Y-4.7648
X4.1171Y-4.7087
X4.123Y-4.1959
X4.124Y-4.0187
X4.1565Y-3.9621
X4.1575Y-4.7657
X4.1732Y-4.9026
X4.1742Y-4.2274
X4.2165Y-4.5344
X4.2234Y-4.2293
X4.2628Y-4.4281
X4.3179Y-4.7707
X4.3543Y-4.2333
X4.3583Y-4.7736
X4.3957Y-4.5965
X4.3957Y-4.6358
X4.4035Y-4.3307
X4.439Y-3.3081
X4.4449Y-4.3317
X4.4636Y-4.6378
X4.4646Y-3.7953
X4.5315Y-3.7461
X4.6319Y-4.8819
X4.8839Y-4.8238
X4.9124Y-3.7795
X5.0039Y-3.753
X5.127Y-3.7244
X5.1634Y-4.0197
X5.1672Y-3.9805
X5.1732Y-4.4321
X5.2156Y-4.1732
X5.2648Y-4.1732
X5.313Y-4.5335
X5.3169Y-4.1742
X5.3278Y-3.2894
X5.3789Y-4.4803
X5.3868Y-4.438
X5.4163Y-4.1732
X5.4665Y-4.372
X5.4803Y-3.9744
X5.5089Y-3.5049
X5.5305Y-4.1191
X5.7077Y-3.8159
X5.7392Y-3.6713
X5.8132Y-3.8066
T3
X4.1506Y-3.8514
X4.1545Y-3.7254
X4.4577Y-3.2037
X5.0256Y-4.8868
X5.1053Y-4.7746
X5.1772Y-3.6841
X5.2972Y-3.7205
T4
X4.4803Y-3.9646
X4.4803Y-4.0646
X4.4803Y-4.1646
T5
X4.6244Y-4.0039
X4.7244Y-4.0039
X4.8244Y-4.0039
T6
X4.6309Y-4.3819
X4.6319Y-4.5443
X4.6368Y-4.2579
X5.5807Y-4.4094
X5.6594Y-4.4862
T7
X3.6909Y-4.0354
M30
