%TF.GenerationSoftware,KiCad,Pcbnew,8.0.6*%
%TF.CreationDate,2024-11-01T20:33:52-04:00*%
%TF.ProjectId,FlexGlO,466c6578-476c-44f2-9e6b-696361645f70,rev?*%
%TF.SameCoordinates,Original*%
%TF.FileFunction,Paste,Top*%
%TF.FilePolarity,Positive*%
%FSLAX46Y46*%
G04 Gerber Fmt 4.6, Leading zero omitted, Abs format (unit mm)*
G04 Created by KiCad (PCBNEW 8.0.6) date 2024-11-01 20:33:52*
%MOMM*%
%LPD*%
G01*
G04 APERTURE LIST*
G04 Aperture macros list*
%AMRoundRect*
0 Rectangle with rounded corners*
0 $1 Rounding radius*
0 $2 $3 $4 $5 $6 $7 $8 $9 X,Y pos of 4 corners*
0 Add a 4 corners polygon primitive as box body*
4,1,4,$2,$3,$4,$5,$6,$7,$8,$9,$2,$3,0*
0 Add four circle primitives for the rounded corners*
1,1,$1+$1,$2,$3*
1,1,$1+$1,$4,$5*
1,1,$1+$1,$6,$7*
1,1,$1+$1,$8,$9*
0 Add four rect primitives between the rounded corners*
20,1,$1+$1,$2,$3,$4,$5,0*
20,1,$1+$1,$4,$5,$6,$7,0*
20,1,$1+$1,$6,$7,$8,$9,0*
20,1,$1+$1,$8,$9,$2,$3,0*%
%AMRotRect*
0 Rectangle, with rotation*
0 The origin of the aperture is its center*
0 $1 length*
0 $2 width*
0 $3 Rotation angle, in degrees counterclockwise*
0 Add horizontal line*
21,1,$1,$2,0,0,$3*%
G04 Aperture macros list end*
%ADD10RotRect,1.828800X0.431800X54.000000*%
%ADD11R,1.663700X0.558800*%
%ADD12RoundRect,0.135000X0.185000X-0.135000X0.185000X0.135000X-0.185000X0.135000X-0.185000X-0.135000X0*%
%ADD13RotRect,2.500000X1.500000X216.000000*%
%ADD14RotRect,1.500000X2.500000X216.000000*%
%ADD15RotRect,2.000000X2.500000X216.000000*%
%ADD16RoundRect,0.250000X0.716891X0.119130X0.334831X0.644991X-0.716891X-0.119130X-0.334831X-0.644991X0*%
%ADD17RoundRect,0.135000X-0.135000X-0.185000X0.135000X-0.185000X0.135000X0.185000X-0.135000X0.185000X0*%
%ADD18RoundRect,0.135000X-0.185000X0.135000X-0.185000X-0.135000X0.185000X-0.135000X0.185000X0.135000X0*%
%ADD19RoundRect,0.140000X0.170000X-0.140000X0.170000X0.140000X-0.170000X0.140000X-0.170000X-0.140000X0*%
%ADD20RotRect,0.660400X1.549400X126.000000*%
%ADD21RotRect,1.905000X1.295400X216.000000*%
%ADD22RoundRect,0.140000X-0.170000X0.140000X-0.170000X-0.140000X0.170000X-0.140000X0.170000X0.140000X0*%
%ADD23RoundRect,0.135000X0.135000X0.185000X-0.135000X0.185000X-0.135000X-0.185000X0.135000X-0.185000X0*%
%ADD24RoundRect,0.140000X0.140000X0.170000X-0.140000X0.170000X-0.140000X-0.170000X0.140000X-0.170000X0*%
%ADD25RoundRect,0.140000X-0.055243X0.213186X-0.219823X-0.013339X0.055243X-0.213186X0.219823X0.013339X0*%
%ADD26RoundRect,0.140000X-0.140000X-0.170000X0.140000X-0.170000X0.140000X0.170000X-0.140000X0.170000X0*%
%ADD27R,1.500000X2.500000*%
%ADD28R,2.500000X1.500000*%
%ADD29R,2.500000X2.000000*%
%ADD30R,0.558800X2.286000*%
%ADD31RotRect,0.660400X1.549400X234.000000*%
%ADD32RotRect,1.905000X1.295400X324.000000*%
%ADD33RoundRect,0.135000X-0.229019X0.000477X-0.070317X-0.217958X0.229019X-0.000477X0.070317X0.217958X0*%
%ADD34RoundRect,0.250000X-0.334831X0.644991X-0.716891X0.119130X0.334831X-0.644991X0.716891X-0.119130X0*%
%ADD35RoundRect,0.250000X-0.475000X0.250000X-0.475000X-0.250000X0.475000X-0.250000X0.475000X0.250000X0*%
%ADD36RoundRect,0.250000X-0.325000X-0.650000X0.325000X-0.650000X0.325000X0.650000X-0.325000X0.650000X0*%
%ADD37RoundRect,0.250000X0.650000X-0.325000X0.650000X0.325000X-0.650000X0.325000X-0.650000X-0.325000X0*%
%ADD38RotRect,1.828800X0.431800X306.000000*%
%ADD39R,0.900000X0.900000*%
%ADD40R,1.500000X0.900000*%
%ADD41R,0.900000X1.500000*%
%ADD42RotRect,0.660400X1.549400X315.000000*%
%ADD43RotRect,1.905000X1.295400X45.000000*%
%ADD44R,1.828800X0.431800*%
%ADD45RoundRect,0.135000X0.070317X-0.217958X0.229019X0.000477X-0.070317X0.217958X-0.229019X-0.000477X0*%
%ADD46R,2.150000X0.950000*%
%ADD47R,2.150000X3.250000*%
%ADD48RoundRect,0.250000X-0.650000X0.325000X-0.650000X-0.325000X0.650000X-0.325000X0.650000X0.325000X0*%
%ADD49R,1.549400X0.660400*%
%ADD50R,1.905000X1.295400*%
%ADD51RoundRect,0.140000X0.219823X-0.013339X0.055243X0.213186X-0.219823X0.013339X-0.055243X-0.213186X0*%
%ADD52RotRect,2.500000X1.500000X324.000000*%
%ADD53RotRect,1.500000X2.500000X324.000000*%
%ADD54RotRect,2.000000X2.500000X324.000000*%
G04 APERTURE END LIST*
D10*
%TO.C,I_AMP1*%
X92887295Y-95246080D03*
X93413154Y-95628139D03*
X93939017Y-96010201D03*
X94464876Y-96392260D03*
X97077581Y-92796180D03*
X96551722Y-92414121D03*
X96025859Y-92032059D03*
X95500000Y-91650000D03*
%TD*%
D11*
%TO.C,DUAL_AMP1*%
X107800000Y-120795000D03*
X107800000Y-119525000D03*
X107800000Y-118255000D03*
X107800000Y-116985000D03*
X102148500Y-116985000D03*
X102148500Y-118255000D03*
X102148500Y-119525000D03*
X102148500Y-120795000D03*
%TD*%
D12*
%TO.C,R_K_H1*%
X103825000Y-123500000D03*
X103825000Y-122480000D03*
%TD*%
D13*
%TO.C,JACK2*%
X134575000Y-89475000D03*
D14*
X134044146Y-84916416D03*
X138746430Y-91388552D03*
D15*
X136986322Y-82160766D03*
X142276390Y-89441919D03*
%TD*%
D16*
%TO.C,C_I_D4*%
X141591983Y-96543300D03*
X139858017Y-94156700D03*
%TD*%
D17*
%TO.C,R_M_L2*%
X106280000Y-101950000D03*
X107300000Y-101950000D03*
%TD*%
D18*
%TO.C,R_F_D1*%
X112900000Y-108080000D03*
X112900000Y-109100000D03*
%TD*%
D12*
%TO.C,R_M_H1*%
X99825000Y-103670000D03*
X99825000Y-102650000D03*
%TD*%
%TO.C,R_M_N4*%
X140225000Y-103700000D03*
X140225000Y-102680000D03*
%TD*%
D19*
%TO.C,C_ESP_D1*%
X109675000Y-81210000D03*
X109675000Y-80250000D03*
%TD*%
D17*
%TO.C,R_M_Q3*%
X134230000Y-101975000D03*
X135250000Y-101975000D03*
%TD*%
D20*
%TO.C,JST_3P2*%
X132206614Y-94955575D03*
X132794400Y-95764592D03*
X133382186Y-96573610D03*
D21*
X136189073Y-96141174D03*
X133485261Y-92419696D03*
%TD*%
D12*
%TO.C,R_M_N2*%
X99800000Y-110885000D03*
X99800000Y-109865000D03*
%TD*%
D19*
%TO.C,C_ADC_F3*%
X108675000Y-89835000D03*
X108675000Y-88875000D03*
%TD*%
D22*
%TO.C,C_K_L2*%
X100150000Y-118565000D03*
X100150000Y-119525000D03*
%TD*%
D17*
%TO.C,R_M_O2*%
X108225000Y-111550000D03*
X109245000Y-111550000D03*
%TD*%
D23*
%TO.C,R_M_N1*%
X101850000Y-111575000D03*
X100830000Y-111575000D03*
%TD*%
D24*
%TO.C,C_M_L2*%
X103825000Y-100925000D03*
X102865000Y-100925000D03*
%TD*%
D25*
%TO.C,C_I_D1*%
X99075000Y-93000000D03*
X98510726Y-93776656D03*
%TD*%
D24*
%TO.C,C_M_H4*%
X131775000Y-111550000D03*
X130815000Y-111550000D03*
%TD*%
D26*
%TO.C,C_ADC_F2*%
X130315000Y-80075000D03*
X131275000Y-80075000D03*
%TD*%
D17*
%TO.C,R_M_H4*%
X134680000Y-111600000D03*
X135700000Y-111600000D03*
%TD*%
D26*
%TO.C,C_M_L1*%
X108265000Y-101975000D03*
X109225000Y-101975000D03*
%TD*%
D27*
%TO.C,JACK3*%
X120000000Y-118374999D03*
D28*
X124000000Y-120625000D03*
X116000000Y-120625000D03*
D29*
X124499999Y-124624999D03*
X115499999Y-124624999D03*
%TD*%
D19*
%TO.C,C_M_L3*%
X129800000Y-110830000D03*
X129800000Y-109870000D03*
%TD*%
D30*
%TO.C,QUAD_AMP2*%
X138820000Y-104250000D03*
X137550000Y-104250000D03*
X136280000Y-104250000D03*
X135010000Y-104250000D03*
X133740000Y-104250000D03*
X132470000Y-104250000D03*
X131200000Y-104250000D03*
X131200000Y-109279200D03*
X132470000Y-109279200D03*
X133740000Y-109279200D03*
X135010000Y-109279200D03*
X136280000Y-109279200D03*
X137550000Y-109279200D03*
X138820000Y-109279200D03*
%TD*%
D31*
%TO.C,JST_3P1*%
X106653075Y-96678914D03*
X107240861Y-95869896D03*
X107828647Y-95060879D03*
D32*
X106550000Y-92525000D03*
X103846188Y-96246478D03*
%TD*%
D23*
%TO.C,R_M_Q2*%
X101800000Y-113725000D03*
X100780000Y-113725000D03*
%TD*%
D18*
%TO.C,R_F_D2*%
X112875000Y-110975000D03*
X112875000Y-111995000D03*
%TD*%
D23*
%TO.C,R_M_O4*%
X139200000Y-101975000D03*
X138180000Y-101975000D03*
%TD*%
D33*
%TO.C,R_I_G2*%
X146300460Y-90974802D03*
X146900000Y-91800000D03*
%TD*%
D19*
%TO.C,C_K_H1*%
X105950000Y-123475000D03*
X105950000Y-122515000D03*
%TD*%
D34*
%TO.C,C_I_D2*%
X100200000Y-94325000D03*
X98466034Y-96711600D03*
%TD*%
D23*
%TO.C,R_M_L4*%
X133735000Y-112625000D03*
X132715000Y-112625000D03*
%TD*%
D22*
%TO.C,C_M_D1*%
X99550000Y-106295000D03*
X99550000Y-107255000D03*
%TD*%
D26*
%TO.C,C_M_O1*%
X102845000Y-111575000D03*
X103805000Y-111575000D03*
%TD*%
D24*
%TO.C,C_ADC_F1*%
X131255000Y-81925000D03*
X130295000Y-81925000D03*
%TD*%
D35*
%TO.C,C_ESP_D2*%
X108125000Y-80150000D03*
X108125000Y-82050000D03*
%TD*%
D36*
%TO.C,C_I_D6*%
X110125000Y-119500000D03*
X113075000Y-119500000D03*
%TD*%
D12*
%TO.C,R_K_L2*%
X100150000Y-117610000D03*
X100150000Y-116590000D03*
%TD*%
D17*
%TO.C,R_K_H2*%
X109765000Y-116700000D03*
X110785000Y-116700000D03*
%TD*%
D24*
%TO.C,C_K_D1*%
X105475000Y-115275000D03*
X104515000Y-115275000D03*
%TD*%
%TO.C,C_K_L1*%
X101855000Y-115575000D03*
X100895000Y-115575000D03*
%TD*%
D37*
%TO.C,C_M_D2*%
X97850000Y-108250000D03*
X97850000Y-105300000D03*
%TD*%
D38*
%TO.C,I_AMP2*%
X144600000Y-91575000D03*
X144074141Y-91957059D03*
X143548278Y-92339121D03*
X143022419Y-92721180D03*
X145635124Y-96317260D03*
X146160983Y-95935201D03*
X146686846Y-95553139D03*
X147212705Y-95171080D03*
%TD*%
D23*
%TO.C,R_I_G3*%
X111925000Y-126625000D03*
X110905000Y-126625000D03*
%TD*%
D26*
%TO.C,C_LDO1*%
X120190000Y-105950000D03*
X121150000Y-105950000D03*
%TD*%
D39*
%TO.C,ESP1*%
X117100000Y-86420000D03*
X117100000Y-87820000D03*
X117100000Y-89220000D03*
X118500000Y-86420000D03*
X118500000Y-87820000D03*
X118500000Y-89220000D03*
X119900000Y-86420000D03*
X119900000Y-87820000D03*
X119900000Y-89220000D03*
D40*
X111250000Y-80100000D03*
X111250000Y-81370000D03*
X111250000Y-82640000D03*
X111250000Y-83910000D03*
X111250000Y-85180000D03*
X111250000Y-86450000D03*
X111250000Y-87720000D03*
X111250000Y-88990000D03*
X111250000Y-90260000D03*
X111250000Y-91530000D03*
X111250000Y-92800000D03*
X111250000Y-94070000D03*
X111250000Y-95340000D03*
X111250000Y-96610000D03*
D41*
X113015000Y-97860000D03*
X114285000Y-97860000D03*
X115555000Y-97860000D03*
X116825000Y-97860000D03*
X118095000Y-97860000D03*
X119365000Y-97860000D03*
X120635000Y-97860000D03*
X121905000Y-97860000D03*
X123175000Y-97860000D03*
X124445000Y-97860000D03*
X125715000Y-97860000D03*
X126985000Y-97860000D03*
D40*
X128750000Y-96610000D03*
X128750000Y-95340000D03*
X128750000Y-94070000D03*
X128750000Y-92800000D03*
X128750000Y-91530000D03*
X128750000Y-90260000D03*
X128750000Y-88990000D03*
X128750000Y-87720000D03*
X128750000Y-86450000D03*
X128750000Y-85180000D03*
X128750000Y-83910000D03*
X128750000Y-82640000D03*
X128750000Y-81370000D03*
X128750000Y-80100000D03*
%TD*%
D18*
%TO.C,R_I_D2*%
X111800000Y-110975000D03*
X111800000Y-111995000D03*
%TD*%
D17*
%TO.C,R_M_Q1*%
X100830000Y-112675000D03*
X101850000Y-112675000D03*
%TD*%
D12*
%TO.C,R_ESP_PU1*%
X109675000Y-83160000D03*
X109675000Y-82140000D03*
%TD*%
D24*
%TO.C,C_M_H2*%
X101825000Y-101975000D03*
X100865000Y-101975000D03*
%TD*%
D18*
%TO.C,R_ESP_PU4*%
X130300000Y-95655000D03*
X130300000Y-96675000D03*
%TD*%
D24*
%TO.C,C_M_L4*%
X133700000Y-111575000D03*
X132740000Y-111575000D03*
%TD*%
D22*
%TO.C,C_K_H2*%
X104875000Y-122500000D03*
X104875000Y-123460000D03*
%TD*%
D26*
%TO.C,C_I_D5*%
X112515000Y-121200000D03*
X113475000Y-121200000D03*
%TD*%
D42*
%TO.C,JST_2P1*%
X140617895Y-114142895D03*
X141325000Y-114850000D03*
D43*
X137913212Y-115009100D03*
X140458795Y-117554683D03*
%TD*%
D26*
%TO.C,C_ESP_USB1*%
X116115000Y-105025000D03*
X117075000Y-105025000D03*
%TD*%
D19*
%TO.C,C_ADC_F4*%
X109700000Y-88485000D03*
X109700000Y-87525000D03*
%TD*%
D30*
%TO.C,QUAD_AMP1*%
X101230000Y-109279200D03*
X102500000Y-109279200D03*
X103770000Y-109279200D03*
X105040000Y-109279200D03*
X106310000Y-109279200D03*
X107580000Y-109279200D03*
X108850000Y-109279200D03*
X108850000Y-104250000D03*
X107580000Y-104250000D03*
X106310000Y-104250000D03*
X105040000Y-104250000D03*
X103770000Y-104250000D03*
X102500000Y-104250000D03*
X101230000Y-104250000D03*
%TD*%
D22*
%TO.C,C_ESP_D3*%
X106600000Y-81065000D03*
X106600000Y-82025000D03*
%TD*%
D18*
%TO.C,R_I_D1*%
X111850000Y-108075000D03*
X111850000Y-109095000D03*
%TD*%
D24*
%TO.C,C_M_O3*%
X135225000Y-100925000D03*
X134265000Y-100925000D03*
%TD*%
D23*
%TO.C,R_M_H2*%
X103850000Y-101975000D03*
X102830000Y-101975000D03*
%TD*%
%TO.C,R_K_L1*%
X110770000Y-117775000D03*
X109750000Y-117775000D03*
%TD*%
D44*
%TO.C,I_AMP3*%
X112425000Y-124875000D03*
X112425000Y-124225002D03*
X112425000Y-123575000D03*
X112425000Y-122925002D03*
X107980000Y-122925002D03*
X107980000Y-123575000D03*
X107980000Y-124225002D03*
X107980000Y-124875000D03*
%TD*%
D45*
%TO.C,R_I_G1*%
X93125230Y-91887599D03*
X93724770Y-91062401D03*
%TD*%
D36*
%TO.C,C_K_D2*%
X103525000Y-113575000D03*
X106475000Y-113575000D03*
%TD*%
D46*
%TO.C,LDO1*%
X120575000Y-111825000D03*
X120575000Y-109525000D03*
X120575000Y-107225000D03*
D47*
X114775000Y-109525000D03*
%TD*%
D17*
%TO.C,R_M_O1*%
X104780000Y-111575000D03*
X105800000Y-111575000D03*
%TD*%
D48*
%TO.C,C_M_D4*%
X142200000Y-105275000D03*
X142200000Y-108225000D03*
%TD*%
D22*
%TO.C,C_M_O2*%
X110250000Y-109850000D03*
X110250000Y-110810000D03*
%TD*%
D26*
%TO.C,C_M_O4*%
X136250000Y-101975000D03*
X137210000Y-101975000D03*
%TD*%
D17*
%TO.C,R_M_L3*%
X132705000Y-113675000D03*
X133725000Y-113675000D03*
%TD*%
D26*
%TO.C,C_ESP_USB2*%
X110515000Y-99375000D03*
X111475000Y-99375000D03*
%TD*%
D49*
%TO.C,JST_3P3*%
X129699999Y-124825001D03*
X129699999Y-123825000D03*
X129699999Y-122824999D03*
D50*
X127175000Y-121525000D03*
X127175000Y-126125000D03*
%TD*%
D26*
%TO.C,C_M_H3*%
X136675000Y-111625000D03*
X137635000Y-111625000D03*
%TD*%
D51*
%TO.C,C_I_D3*%
X141557137Y-93638328D03*
X140992863Y-92861672D03*
%TD*%
D23*
%TO.C,R_M_L1*%
X107300000Y-100900000D03*
X106280000Y-100900000D03*
%TD*%
D18*
%TO.C,R_M_H3*%
X140225000Y-109850000D03*
X140225000Y-110870000D03*
%TD*%
%TO.C,R_M_O3*%
X129775000Y-102665000D03*
X129775000Y-103685000D03*
%TD*%
D26*
%TO.C,C_M_H1*%
X100840000Y-100950000D03*
X101800000Y-100950000D03*
%TD*%
D52*
%TO.C,JACK1*%
X105444147Y-89558585D03*
D53*
X101272718Y-91472136D03*
X105975000Y-85000000D03*
D54*
X97742757Y-89525504D03*
X103032824Y-82244351D03*
%TD*%
D17*
%TO.C,R_M_N3*%
X132230000Y-101975000D03*
X133250000Y-101975000D03*
%TD*%
D23*
%TO.C,R_M_Q4*%
X135720000Y-112650000D03*
X134700000Y-112650000D03*
%TD*%
D26*
%TO.C,C_LDO2*%
X114215000Y-111950000D03*
X115175000Y-111950000D03*
%TD*%
D19*
%TO.C,C_M_D3*%
X140500000Y-107230000D03*
X140500000Y-106270000D03*
%TD*%
M02*
